<svg xmlns="http://www.w3.org/2000/svg" xmlns:xlink="http://www.w3.org/1999/xlink" contentStyleType="text/css" data-diagram-type="DESCRIPTION" height="2598px" preserveAspectRatio="none" style="width:1113px;height:2598px;background:#FFFFFF;" version="1.1" viewBox="0 0 1113 2598" width="1113px" zoomAndPan="magnify"><title>Dual-Branch IDS Model Architecture</title><defs/><g><g class="title" data-source-line="13"><text fill="#000000" font-family="sans-serif" font-size="14" font-weight="bold" lengthAdjust="spacing" textLength="284.6484" x="407.4539" y="22.9951">Dual-Branch IDS Model Architecture</text></g><!--cluster CNN Branch--><g class="cluster" data-entity="CNN Branch" data-source-line="22" data-uid="ent0004" id="cluster_CNN Branch"><path d="M431.5,278.8869 L526.3369,278.8869 A3.75,3.75 0 0 1 528.8369,281.3869 L535.8369,301.1837 L622.5,301.1837 A2.5,2.5 0 0 1 625,303.6837 L625,852.6569 A2.5,2.5 0 0 1 622.5,855.1569 L431.5,855.1569 A2.5,2.5 0 0 1 429,852.6569 L429,281.3869 A2.5,2.5 0 0 1 431.5,278.8869" fill="none" style="stroke:#000000;stroke-width:1.5;"/><line style="stroke:#000000;stroke-width:1.5;" x1="429" x2="535.8369" y1="301.1837" y2="301.1837"/><text fill="#000000" font-family="sans-serif" font-size="14" font-weight="bold" lengthAdjust="spacing" textLength="93.8369" x="433" y="293.882">CNN Branch</text></g><!--cluster BiLSTM Branch--><g class="cluster" data-entity="BiLSTM Branch" data-source-line="31" data-uid="ent0010" id="cluster_BiLSTM Branch"><path d="M8.5,278.8869 L127.584,278.8869 A3.75,3.75 0 0 1 130.084,281.3869 L137.084,301.1837 L227.5,301.1837 A2.5,2.5 0 0 1 230,303.6837 L230,737.0569 A2.5,2.5 0 0 1 227.5,739.5569 L8.5,739.5569 A2.5,2.5 0 0 1 6,737.0569 L6,281.3869 A2.5,2.5 0 0 1 8.5,278.8869" fill="none" style="stroke:#000000;stroke-width:1.5;"/><line style="stroke:#000000;stroke-width:1.5;" x1="6" x2="137.084" y1="301.1837" y2="301.1837"/><text fill="#000000" font-family="sans-serif" font-size="14" font-weight="bold" lengthAdjust="spacing" textLength="118.084" x="10" y="293.882">BiLSTM Branch</text></g><!--cluster Autoencoder--><g class="cluster" data-entity="Autoencoder" data-source-line="43" data-uid="ent0017" id="cluster_Autoencoder"><path d="M158.5,1118.1469 L260.4121,1118.1469 A3.75,3.75 0 0 1 262.9121,1120.6469 L269.9121,1140.4438 L447.5,1140.4438 A2.5,2.5 0 0 1 450,1142.9438 L450,1662.5069 A2.5,2.5 0 0 1 447.5,1665.0069 L158.5,1665.0069 A2.5,2.5 0 0 1 156,1662.5069 L156,1120.6469 A2.5,2.5 0 0 1 158.5,1118.1469" fill="none" style="stroke:#000000;stroke-width:1.5;"/><line style="stroke:#000000;stroke-width:1.5;" x1="156" x2="269.9121" y1="1140.4438" y2="1140.4438"/><text fill="#000000" font-family="sans-serif" font-size="14" font-weight="bold" lengthAdjust="spacing" textLength="100.9121" x="160" y="1133.142">Autoencoder</text></g><!--cluster Self-Attention--><g class="cluster" data-entity="Self-Attention" data-source-line="51" data-uid="ent0022" id="cluster_Self-Attention"><path d="M476.5,1398.9269 L588.5361,1398.9269 A3.75,3.75 0 0 1 591.0361,1401.4269 L598.0361,1421.2237 L747.5,1421.2237 A2.5,2.5 0 0 1 750,1423.7237 L750,1929.0969 A2.5,2.5 0 0 1 747.5,1931.5969 L476.5,1931.5969 A2.5,2.5 0 0 1 474,1929.0969 L474,1401.4269 A2.5,2.5 0 0 1 476.5,1398.9269" fill="none" style="stroke:#000000;stroke-width:1.5;"/><line style="stroke:#000000;stroke-width:1.5;" x1="474" x2="598.0361" y1="1421.2237" y2="1421.2237"/><text fill="#000000" font-family="sans-serif" font-size="14" font-weight="bold" lengthAdjust="spacing" textLength="111.0361" x="478" y="1413.922">Self-Attention</text></g><!--cluster Classifier--><g class="cluster" data-entity="Classifier" data-source-line="59" data-uid="ent0027" id="cluster_Classifier"><path d="M565.5,1964.5969 L639.7744,1964.5969 A3.75,3.75 0 0 1 642.2744,1967.0969 L649.2744,1986.8938 L818.5,1986.8938 A2.5,2.5 0 0 1 821,1989.3938 L821,2292.8769 A2.5,2.5 0 0 1 818.5,2295.3769 L565.5,2295.3769 A2.5,2.5 0 0 1 563,2292.8769 L563,1967.0969 A2.5,2.5 0 0 1 565.5,1964.5969" fill="none" style="stroke:#000000;stroke-width:1.5;"/><line style="stroke:#000000;stroke-width:1.5;" x1="563" x2="649.2744" y1="1986.8938" y2="1986.8938"/><text fill="#000000" font-family="sans-serif" font-size="14" font-weight="bold" lengthAdjust="spacing" textLength="73.2744" x="567" y="1979.592">Classifier</text></g><!--entity cnn_reshape--><g class="entity" data-entity="cnn_reshape" data-source-line="23" data-uid="ent0005" id="entity_cnn_reshape"><rect fill="#ADD8E6" height="52.5938" rx="2.5" ry="2.5" style="stroke:#00008B;stroke-width:0.5;" width="99.0918" x="461.45" y="313.8869"/><text fill="#000000" font-family="sans-serif" font-size="14" lengthAdjust="spacing" textLength="79.0918" x="471.45" y="336.882">Reshape to</text><text fill="#000000" font-family="sans-serif" font-size="14" lengthAdjust="spacing" textLength="55.2891" x="471.45" y="353.1789">[B, 1, F]</text></g><!--entity conv1--><g class="entity" data-entity="conv1" data-source-line="24" data-uid="ent0006" id="entity_conv1"><rect fill="#ADD8E6" height="68.8906" rx="2.5" ry="2.5" style="stroke:#00008B;stroke-width:0.5;" width="164.4912" x="444.75" y="427.4869"/><text fill="#000000" font-family="sans-serif" font-size="14" lengthAdjust="spacing" textLength="100.9736" x="454.75" y="450.482">Conv1D (1&#8594;C)</text><text fill="#000000" font-family="sans-serif" font-size="14" lengthAdjust="spacing" textLength="110.8516" x="454.75" y="466.7789">Kernel=3, ReLU</text><text fill="#000000" font-family="sans-serif" font-size="14" lengthAdjust="spacing" textLength="144.4912" x="454.75" y="483.0757">BatchNorm, Dropout</text></g><!--entity conv2--><g class="entity" data-entity="conv2" data-source-line="25" data-uid="ent0007" id="entity_conv2"><rect fill="#ADD8E6" height="52.5938" rx="2.5" ry="2.5" style="stroke:#00008B;stroke-width:0.5;" width="130.8516" x="461.57" y="557.3769"/><text fill="#000000" font-family="sans-serif" font-size="14" lengthAdjust="spacing" textLength="101.8418" x="471.57" y="580.372">Conv1D (C&#8594;C)</text><text fill="#000000" font-family="sans-serif" font-size="14" lengthAdjust="spacing" textLength="110.8516" x="471.57" y="596.6689">Kernel=3, ReLU</text></g><!--entity pool--><g class="entity" data-entity="pool" data-source-line="26" data-uid="ent0008" id="entity_pool"><rect fill="#ADD8E6" height="52.5938" rx="2.5" ry="2.5" style="stroke:#00008B;stroke-width:0.5;" width="160.3008" x="446.85" y="670.9669"/><text fill="#000000" font-family="sans-serif" font-size="14" lengthAdjust="spacing" textLength="140.3008" x="456.85" y="693.962">AdaptiveMaxPool1D</text><text fill="#000000" font-family="sans-serif" font-size="14" lengthAdjust="spacing" textLength="133.6152" x="456.85" y="710.2589">Global Max Pooling</text></g><!--entity cnn_out--><g class="entity" data-entity="cnn_out" data-source-line="27" data-uid="ent0009" id="entity_cnn_out"><rect fill="#ADD8E6" height="52.5938" rx="2.5" ry="2.5" style="stroke:#00008B;stroke-width:0.5;" width="117.002" x="445.5" y="786.5569"/><text fill="#000000" font-family="sans-serif" font-size="14" lengthAdjust="spacing" textLength="48.9863" x="455.5" y="809.552">Flatten</text><text fill="#000000" font-family="sans-serif" font-size="14" lengthAdjust="spacing" textLength="97.002" x="455.5" y="825.8489">Output: [B, C]</text></g><!--entity lstm_reshape--><g class="entity" data-entity="lstm_reshape" data-source-line="32" data-uid="ent0011" id="entity_lstm_reshape"><rect fill="#ADD8E6" height="52.5938" rx="2.5" ry="2.5" style="stroke:#00008B;stroke-width:0.5;" width="99.0918" x="107.45" y="313.8869"/><text fill="#000000" font-family="sans-serif" font-size="14" lengthAdjust="spacing" textLength="79.0918" x="117.45" y="336.882">Reshape to</text><text fill="#000000" font-family="sans-serif" font-size="14" lengthAdjust="spacing" textLength="75.5713" x="117.45" y="353.1789">[B, T=1, F]</text></g><!--entity bilstm--><g class="entity" data-entity="bilstm" data-source-line="33" data-uid="ent0012" id="entity_bilstm"><rect fill="#ADD8E6" height="52.5938" rx="2.5" ry="2.5" style="stroke:#00008B;stroke-width:0.5;" width="167.7998" x="43.1" y="435.6269"/><text fill="#000000" font-family="sans-serif" font-size="14" lengthAdjust="spacing" textLength="129.3906" x="53.1" y="458.622">Bidirectional LSTM</text><text fill="#000000" font-family="sans-serif" font-size="14" lengthAdjust="spacing" textLength="147.7998" x="53.1" y="474.9189">Hidden=H, Layers=1</text></g><!--entity concat_hidden--><g class="entity" data-entity="concat_hidden" data-source-line="34" data-uid="ent0013" id="entity_concat_hidden"><rect fill="#ADD8E6" height="52.5938" rx="2.5" ry="2.5" style="stroke:#00008B;stroke-width:0.5;" width="191.5889" x="22.21" y="557.3769"/><text fill="#000000" font-family="sans-serif" font-size="14" lengthAdjust="spacing" textLength="125.8428" x="32.21" y="580.372">Concat Forward &amp;</text><text fill="#000000" font-family="sans-serif" font-size="14" lengthAdjust="spacing" textLength="171.5889" x="32.21" y="596.6689">Backward Hidden States</text></g><!--entity lstm_out--><g class="entity" data-entity="lstm_out" data-source-line="35" data-uid="ent0014" id="entity_lstm_out"><rect fill="#ADD8E6" height="52.5938" rx="2.5" ry="2.5" style="stroke:#00008B;stroke-width:0.5;" width="126.6611" x="87.67" y="670.9669"/><text fill="#000000" font-family="sans-serif" font-size="14" lengthAdjust="spacing" textLength="56.916" x="97.67" y="693.962">Dropout</text><text fill="#000000" font-family="sans-serif" font-size="14" lengthAdjust="spacing" textLength="106.6611" x="97.67" y="710.2589">Output: [B, 2H]</text></g><!--entity encoder--><g class="entity" data-entity="encoder" data-source-line="44" data-uid="ent0018" id="entity_encoder"><rect fill="#ADD8E6" height="85.1875" rx="2.5" ry="2.5" style="stroke:#00008B;stroke-width:0.5;" width="261.1582" x="172.42" y="1153.1469"/><text fill="#000000" font-family="sans-serif" font-size="14" lengthAdjust="spacing" textLength="57.2373" x="182.42" y="1176.142">Encoder</text><text fill="#000000" font-family="sans-serif" font-size="14" lengthAdjust="spacing" textLength="241.1582" x="182.42" y="1192.4389">Linear(fusion_dim &#8594; latent_dim*2)</text><text fill="#000000" font-family="sans-serif" font-size="14" lengthAdjust="spacing" textLength="102.2041" x="182.42" y="1208.7357">ReLU, Dropout</text><text fill="#000000" font-family="sans-serif" font-size="14" lengthAdjust="spacing" textLength="239.668" x="182.42" y="1225.0326">Linear(latent_dim*2 &#8594; latent_dim)</text></g><!--entity latent--><g class="entity" data-entity="latent" data-source-line="45" data-uid="ent0019" id="entity_latent"><rect fill="#ADD8E6" height="52.5938" rx="2.5" ry="2.5" style="stroke:#00008B;stroke-width:0.5;" width="123.7764" x="310.11" y="1299.3369"/><text fill="#000000" font-family="sans-serif" font-size="14" lengthAdjust="spacing" textLength="91.957" x="320.11" y="1322.332">Latent Space</text><text fill="#000000" font-family="sans-serif" font-size="14" lengthAdjust="spacing" textLength="103.7764" x="320.11" y="1338.6289">[B, latent_dim]</text></g><!--entity decoder--><g class="entity" data-entity="decoder" data-source-line="46" data-uid="ent0020" id="entity_decoder"><rect fill="#ADD8E6" height="85.1875" rx="2.5" ry="2.5" style="stroke:#00008B;stroke-width:0.5;" width="261.1582" x="172.42" y="1442.0769"/><text fill="#000000" font-family="sans-serif" font-size="14" lengthAdjust="spacing" textLength="58.9121" x="182.42" y="1465.072">Decoder</text><text fill="#000000" font-family="sans-serif" font-size="14" lengthAdjust="spacing" textLength="239.668" x="182.42" y="1481.3689">Linear(latent_dim &#8594; latent_dim*2)</text><text fill="#000000" font-family="sans-serif" font-size="14" lengthAdjust="spacing" textLength="36.3877" x="182.42" y="1497.6657">ReLU</text><text fill="#000000" font-family="sans-serif" font-size="14" lengthAdjust="spacing" textLength="241.1582" x="182.42" y="1513.9626">Linear(latent_dim*2 &#8594; fusion_dim)</text></g><!--entity reconstructed--><g class="entity" data-entity="reconstructed" data-source-line="47" data-uid="ent0021" id="entity_reconstructed"><rect fill="#ADD8E6" height="52.5938" rx="2.5" ry="2.5" style="stroke:#00008B;stroke-width:0.5;" width="121.5752" x="218.21" y="1596.4169"/><text fill="#000000" font-family="sans-serif" font-size="14" lengthAdjust="spacing" textLength="101.5752" x="228.21" y="1619.412">Reconstructed</text><text fill="#000000" font-family="sans-serif" font-size="14" lengthAdjust="spacing" textLength="79.2695" x="228.21" y="1635.7089">[B, C + 2H]</text></g><!--entity attention_score--><g class="entity" data-entity="attention_score" data-source-line="52" data-uid="ent0023" id="entity_attention_score"><rect fill="#ADD8E6" height="101.4844" rx="2.5" ry="2.5" style="stroke:#00008B;stroke-width:0.5;" width="243.7607" x="490.12" y="1433.9269"/><text fill="#000000" font-family="sans-serif" font-size="14" lengthAdjust="spacing" textLength="102.4229" x="500.12" y="1456.922">Score Network</text><text fill="#000000" font-family="sans-serif" font-size="14" lengthAdjust="spacing" textLength="223.7607" x="500.12" y="1473.2189">Linear(latent_dim &#8594; latent_dim)</text><text fill="#000000" font-family="sans-serif" font-size="14" lengthAdjust="spacing" textLength="34.877" x="500.12" y="1489.5157">Tanh</text><text fill="#000000" font-family="sans-serif" font-size="14" lengthAdjust="spacing" textLength="223.7607" x="500.12" y="1505.8126">Linear(latent_dim &#8594; latent_dim)</text><text fill="#000000" font-family="sans-serif" font-size="14" lengthAdjust="spacing" textLength="56.6426" x="500.12" y="1522.1095">Sigmoid</text></g><!--entity weights--><g class="entity" data-entity="weights" data-source-line="53" data-uid="ent0024" id="entity_weights"><rect fill="#ADD8E6" height="52.5938" rx="2.5" ry="2.5" style="stroke:#00008B;stroke-width:0.5;" width="146.1982" x="538.9" y="1596.4169"/><text fill="#000000" font-family="sans-serif" font-size="14" lengthAdjust="spacing" textLength="126.1982" x="548.9" y="1619.412">Attention Weights</text><text fill="#000000" font-family="sans-serif" font-size="14" lengthAdjust="spacing" textLength="103.7764" x="548.9" y="1635.7089">[B, latent_dim]</text></g><!--entity att_mult--><g class="entity" data-entity="att_mult" data-source-line="54" data-uid="ent0025" id="entity_att_mult"><ellipse cx="667" cy="1757.0069" fill="#F1F1F1" rx="8" ry="8" style="stroke:#181818;stroke-width:0.5;"/><text fill="#000000" font-family="sans-serif" font-size="14" lengthAdjust="spacing" textLength="94.2607" x="619.8696" y="1787.002">Element-wise</text><text fill="#000000" font-family="sans-serif" font-size="14" lengthAdjust="spacing" textLength="93.9805" x="619.8696" y="1803.2989">Multiplication</text></g><!--entity attended_latent--><g class="entity" data-entity="attended_latent" data-source-line="55" data-uid="ent0026" id="entity_attended_latent"><rect fill="#ADD8E6" height="52.5938" rx="2.5" ry="2.5" style="stroke:#00008B;stroke-width:0.5;" width="133.7227" x="600.14" y="1863.0069"/><text fill="#000000" font-family="sans-serif" font-size="14" lengthAdjust="spacing" textLength="113.7227" x="610.14" y="1886.002">Attended Latent</text><text fill="#000000" font-family="sans-serif" font-size="14" lengthAdjust="spacing" textLength="103.7764" x="610.14" y="1902.2989">[B, latent_dim]</text></g><!--entity clf1--><g class="entity" data-entity="clf1" data-source-line="60" data-uid="ent0028" id="entity_clf1"><rect fill="#ADD8E6" height="52.5938" rx="2.5" ry="2.5" style="stroke:#00008B;stroke-width:0.5;" width="226.3428" x="578.83" y="1999.5969"/><text fill="#000000" font-family="sans-serif" font-size="14" lengthAdjust="spacing" textLength="206.3428" x="588.83" y="2022.592">Linear(latent_dim &#8594; hidden1)</text><text fill="#000000" font-family="sans-serif" font-size="14" lengthAdjust="spacing" textLength="102.2041" x="588.83" y="2038.8889">ReLU, Dropout</text></g><!--entity clf2--><g class="entity" data-entity="clf2" data-source-line="61" data-uid="ent0029" id="entity_clf2"><rect fill="#ADD8E6" height="52.5938" rx="2.5" ry="2.5" style="stroke:#00008B;stroke-width:0.5;" width="208.9248" x="582.54" y="2113.1969"/><text fill="#000000" font-family="sans-serif" font-size="14" lengthAdjust="spacing" textLength="188.9248" x="592.54" y="2136.192">Linear(hidden1 &#8594; hidden2)</text><text fill="#000000" font-family="sans-serif" font-size="14" lengthAdjust="spacing" textLength="102.2041" x="592.54" y="2152.4889">ReLU, Dropout</text></g><!--entity clf_out--><g class="entity" data-entity="clf_out" data-source-line="62" data-uid="ent0030" id="entity_clf_out"><rect fill="#ADD8E6" height="52.5938" rx="2.5" ry="2.5" style="stroke:#00008B;stroke-width:0.5;" width="160.9023" x="592.55" y="2226.7869"/><text fill="#000000" font-family="sans-serif" font-size="14" lengthAdjust="spacing" textLength="140.9023" x="602.55" y="2249.782">Linear(hidden2 &#8594; 1)</text><text fill="#000000" font-family="sans-serif" font-size="14" lengthAdjust="spacing" textLength="95.0059" x="602.55" y="2266.0789">Output Logits</text></g><!--entity input--><g class="entity" data-entity="input" data-source-line="16" data-uid="ent0002" id="entity_input"><rect fill="#ADD8E6" height="52.5938" rx="2.5" ry="2.5" style="stroke:#00008B;stroke-width:0.5;" width="141.3379" x="268.33" y="44.2969"/><text fill="#000000" font-family="sans-serif" font-size="14" lengthAdjust="spacing" textLength="101.9717" x="278.33" y="67.292">Input Features</text><text fill="#000000" font-family="sans-serif" font-size="14" lengthAdjust="spacing" textLength="121.3379" x="278.33" y="83.5889">[Batch, Features]</text></g><!--entity split--><g class="entity" data-entity="split" data-source-line="19" data-uid="ent0003" id="entity_split"><ellipse cx="339" cy="186.8869" fill="#F1F1F1" rx="8" ry="8" style="stroke:#181818;stroke-width:0.5;"/><text fill="#000000" font-family="sans-serif" font-size="14" lengthAdjust="spacing" textLength="68.9199" x="304.54" y="216.882">Data Split</text></g><!--entity fusion--><g class="entity" data-entity="fusion" data-source-line="39" data-uid="ent0015" id="entity_fusion"><ellipse cx="303" cy="929.8569" fill="#F1F1F1" rx="8" ry="8" style="stroke:#181818;stroke-width:0.5;"/><text fill="#000000" font-family="sans-serif" font-size="14" lengthAdjust="spacing" textLength="103.9746" x="251.0127" y="959.852">Feature Fusion</text><text fill="#000000" font-family="sans-serif" font-size="14" lengthAdjust="spacing" textLength="101.8623" x="251.0127" y="976.1489">Concatenation</text></g><!--entity fused_features--><g class="entity" data-entity="fused_features" data-source-line="40" data-uid="ent0016" id="entity_fused_features"><rect fill="#ADD8E6" height="52.5938" rx="2.5" ry="2.5" style="stroke:#00008B;stroke-width:0.5;" width="127.4404" x="239.28" y="1018.5569"/><text fill="#000000" font-family="sans-serif" font-size="14" lengthAdjust="spacing" textLength="107.4404" x="249.28" y="1041.552">Fused Features</text><text fill="#000000" font-family="sans-serif" font-size="14" lengthAdjust="spacing" textLength="79.2695" x="249.28" y="1057.8489">[B, C + 2H]</text></g><!--entity outputs--><g class="entity" data-entity="outputs" data-source-line="66" data-uid="ent0031" id="entity_outputs"><rect fill="#ADD8E6" height="101.4844" rx="2.5" ry="2.5" style="stroke:#00008B;stroke-width:0.5;" width="267.1328" x="408.43" y="2358.3769"/><text fill="#000000" font-family="sans-serif" font-size="14" lengthAdjust="spacing" textLength="98.376" x="418.43" y="2381.372">Final Outputs:</text><text fill="#000000" font-family="sans-serif" font-size="14" lengthAdjust="spacing" textLength="194.5029" x="418.43" y="2397.6689">&#8226; Classification Logits [B, 1]</text><text fill="#000000" font-family="sans-serif" font-size="14" lengthAdjust="spacing" textLength="192.9307" x="418.43" y="2413.9657">&#8226; Reconstruction [B, C+2H]</text><text fill="#000000" font-family="sans-serif" font-size="14" lengthAdjust="spacing" textLength="231.499" x="418.43" y="2430.2626">&#8226; Latent Features [B, latent_dim]</text><text fill="#000000" font-family="sans-serif" font-size="14" lengthAdjust="spacing" textLength="247.1328" x="418.43" y="2446.5595">&#8226; Attention Weights [B, latent_dim]</text></g><g class="entity" data-entity="GMN61" data-source-line="114" data-uid="ent0062" id="entity_GMN61"><path d="M347.18,902.1569 L347.18,925.8569 L312.38,929.8569 L347.18,933.8569 L347.18,957.5553 A0,0 0 0 0 347.18,957.5553 L568.8104,957.5553 A0,0 0 0 0 568.8104,957.5553 L568.8104,912.1569 L558.8104,902.1569 L347.18,902.1569 A0,0 0 0 0 347.18,902.1569" fill="#FEFFDD" style="stroke:#181818;stroke-width:0.5;"/><path d="M558.8104,902.1569 L558.8104,912.1569 L568.8104,912.1569 L558.8104,902.1569" fill="#FEFFDD" style="stroke:#181818;stroke-width:0.5;"/><text fill="#000000" font-family="sans-serif" font-size="13" lengthAdjust="spacing" textLength="104.9458" x="353.18" y="919.2238">"Concatenation:</text><text fill="#000000" font-family="sans-serif" font-size="13" lengthAdjust="spacing" textLength="185.4341" x="353.18" y="934.3566">[B, C] + [B, 2H] &#8594; [B, C+2H]</text><text fill="#000000" font-family="sans-serif" font-size="13" lengthAdjust="spacing" textLength="200.6304" x="353.18" y="949.4894">Typical: 32 + 128 = 160 dims"</text></g><g class="entity" data-entity="GMN64" data-source-line="116" data-uid="ent0065" id="entity_GMN64"><path d="M468.65,1160.4769 L468.65,1191.7369 L433.95,1195.7369 L468.65,1199.7369 L468.65,1231.0081 A0,0 0 0 0 468.65,1231.0081 L667.3526,1231.0081 A0,0 0 0 0 667.3526,1231.0081 L667.3526,1170.4769 L657.3526,1160.4769 L468.65,1160.4769 A0,0 0 0 0 468.65,1160.4769" fill="#FEFFDD" style="stroke:#181818;stroke-width:0.5;"/><path d="M657.3526,1160.4769 L657.3526,1170.4769 L667.3526,1170.4769 L657.3526,1160.4769" fill="#FEFFDD" style="stroke:#181818;stroke-width:0.5;"/><text fill="#000000" font-family="sans-serif" font-size="13" lengthAdjust="spacing" textLength="164.2393" x="474.65" y="1177.5438">"Bottleneck Architecture:</text><text fill="#000000" font-family="sans-serif" font-size="13" lengthAdjust="spacing" textLength="177.7026" x="474.65" y="1192.6766">Compresses fused features</text><text fill="#000000" font-family="sans-serif" font-size="13" lengthAdjust="spacing" textLength="135.7764" x="474.65" y="1207.8094">to lower dimensional</text><text fill="#000000" font-family="sans-serif" font-size="13" lengthAdjust="spacing" textLength="152.5088" x="474.65" y="1222.9422">latent space (32 dims)"</text></g><g class="entity" data-entity="GMN67" data-source-line="118" data-uid="ent0068" id="entity_GMN67"><path d="M911.44,1449.4069 L911.44,1480.6669 L734.12,1484.6669 L911.44,1488.6669 L911.44,1519.9381 A0,0 0 0 0 911.44,1519.9381 L1106.5562,1519.9381 A0,0 0 0 0 1106.5562,1519.9381 L1106.5562,1459.4069 L1096.5562,1449.4069 L911.44,1449.4069 A0,0 0 0 0 911.44,1449.4069" fill="#FEFFDD" style="stroke:#181818;stroke-width:0.5;"/><path d="M1096.5562,1449.4069 L1096.5562,1459.4069 L1106.5562,1459.4069 L1096.5562,1449.4069" fill="#FEFFDD" style="stroke:#181818;stroke-width:0.5;"/><text fill="#000000" font-family="sans-serif" font-size="13" lengthAdjust="spacing" textLength="158.5454" x="917.44" y="1466.4738">"Feature-wise Attention:</text><text fill="#000000" font-family="sans-serif" font-size="13" lengthAdjust="spacing" textLength="174.1162" x="917.44" y="1481.6066">Learns importance of each</text><text fill="#000000" font-family="sans-serif" font-size="13" lengthAdjust="spacing" textLength="131.4917" x="917.44" y="1496.7394">latent dimension for</text><text fill="#000000" font-family="sans-serif" font-size="13" lengthAdjust="spacing" textLength="122.2051" x="917.44" y="1511.8722">final classification"</text></g><g class="entity" data-entity="GMN70" data-source-line="120" data-uid="ent0071" id="entity_GMN70"><path d="M439.72,2520.8669 L439.72,2591.3981 A0,0 0 0 0 439.72,2591.3981 L644.2879,2591.3981 A0,0 0 0 0 644.2879,2591.3981 L644.2879,2530.8669 L634.2879,2520.8669 L546,2520.8669 L542,2460.0269 L538,2520.8669 L439.72,2520.8669 A0,0 0 0 0 439.72,2520.8669" fill="#FEFFDD" style="stroke:#181818;stroke-width:0.5;"/><path d="M634.2879,2520.8669 L634.2879,2530.8669 L644.2879,2530.8669 L634.2879,2520.8669" fill="#FEFFDD" style="stroke:#181818;stroke-width:0.5;"/><text fill="#000000" font-family="sans-serif" font-size="13" lengthAdjust="spacing" textLength="135.2178" x="445.72" y="2537.9338">"Multi-task Learning:</text><text fill="#000000" font-family="sans-serif" font-size="13" lengthAdjust="spacing" textLength="137.3633" x="445.72" y="2553.0666">&#8226; Main: Classification</text><text fill="#000000" font-family="sans-serif" font-size="13" lengthAdjust="spacing" textLength="174.8525" x="445.72" y="2568.1994">&#8226; Auxiliary: Reconstruction</text><text fill="#000000" font-family="sans-serif" font-size="13" lengthAdjust="spacing" textLength="183.5679" x="445.72" y="2583.3322">&#8226; Interpretability: Attention"</text></g><g class="entity" data-entity="GMN73" data-source-line="123" data-uid="ent0074" id="entity_GMN73"><path d="M256.38,677.1269 L256.38,717.3925 A0,0 0 0 0 256.38,717.3925 L359.22,717.3925 L465.61,786.2069 L367.22,717.3925 L411.6139,717.3925 A0,0 0 0 0 411.6139,717.3925 L411.6139,687.1269 L401.6139,677.1269 L256.38,677.1269 A0,0 0 0 0 256.38,677.1269" fill="#FEFFDD" style="stroke:#181818;stroke-width:0.5;"/><path d="M401.6139,677.1269 L401.6139,687.1269 L411.6139,687.1269 L401.6139,677.1269" fill="#FEFFDD" style="stroke:#181818;stroke-width:0.5;"/><text fill="#000000" font-family="sans-serif" font-size="13" lengthAdjust="spacing" textLength="83.7954" x="262.38" y="694.1938">"CNN Output</text><text fill="#000000" font-family="sans-serif" font-size="13" lengthAdjust="spacing" textLength="134.2339" x="262.38" y="709.3266">Dimensions: [B, 32]"</text></g><g class="entity" data-entity="GMN76" data-source-line="124" data-uid="ent0077" id="entity_GMN76"><path d="M249.25,563.5369 L249.25,603.8025 A0,0 0 0 0 249.25,603.8025 L295.65,603.8025 L192.46,670.5569 L303.65,603.8025 L412.7549,603.8025 A0,0 0 0 0 412.7549,603.8025 L412.7549,573.5369 L402.7549,563.5369 L249.25,563.5369 A0,0 0 0 0 249.25,563.5369" fill="#FEFFDD" style="stroke:#181818;stroke-width:0.5;"/><path d="M402.7549,563.5369 L402.7549,573.5369 L412.7549,573.5369 L402.7549,563.5369" fill="#FEFFDD" style="stroke:#181818;stroke-width:0.5;"/><text fill="#000000" font-family="sans-serif" font-size="13" lengthAdjust="spacing" textLength="102.4512" x="255.25" y="580.6038">"BiLSTM Output</text><text fill="#000000" font-family="sans-serif" font-size="13" lengthAdjust="spacing" textLength="142.5049" x="255.25" y="595.7366">Dimensions: [B, 128]"</text></g><g class="entity" data-entity="GMN79" data-source-line="125" data-uid="ent0080" id="entity_GMN79"><path d="M469.38,1305.4969 L469.38,1321.6269 L434.21,1325.6269 L469.38,1329.6269 L469.38,1345.7625 A0,0 0 0 0 469.38,1345.7625 L624.6139,1345.7625 A0,0 0 0 0 624.6139,1345.7625 L624.6139,1315.4969 L614.6139,1305.4969 L469.38,1305.4969 A0,0 0 0 0 469.38,1305.4969" fill="#FEFFDD" style="stroke:#181818;stroke-width:0.5;"/><path d="M614.6139,1305.4969 L614.6139,1315.4969 L624.6139,1315.4969 L614.6139,1305.4969" fill="#FEFFDD" style="stroke:#181818;stroke-width:0.5;"/><text fill="#000000" font-family="sans-serif" font-size="13" lengthAdjust="spacing" textLength="91.3682" x="475.38" y="1322.5638">"Latent Space</text><text fill="#000000" font-family="sans-serif" font-size="13" lengthAdjust="spacing" textLength="134.2339" x="475.38" y="1337.6966">Dimensions: [B, 32]"</text></g><!--link input to split--><g class="link" data-entity-1="input" data-entity-2="split" data-source-line="69" data-uid="lnk32" id="link_input_split"><path d="M339,97.2469 C339,123.3069 339,156.0769 339,172.3169" fill="none" id="input-to-split" style="stroke:#00008B;stroke-width:2;"/><polygon fill="#00008B" points="339,178.3169,343,169.3169,339,173.3169,335,169.3169,339,178.3169" style="stroke:#00008B;stroke-width:2;"/></g><!--link split to cnn_reshape--><g class="link" data-entity-1="split" data-entity-2="cnn_reshape" data-source-line="70" data-uid="lnk33" id="link_split_cnn_reshape"><path d="M347.77,195.5969 C372.21,217.0969 437.4145,274.4645 477.3945,309.6245" fill="none" id="split-to-cnn_reshape" style="stroke:#00008B;stroke-width:2;"/><polygon fill="#00008B" points="481.9,313.5869,477.7833,304.6397,478.1454,310.2849,472.5001,310.647,481.9,313.5869" style="stroke:#00008B;stroke-width:2;"/><text fill="#000000" font-family="sans-serif" font-size="13" lengthAdjust="spacing" textLength="70.2939" x="420" y="258.9538">Same data</text></g><!--link split to lstm_reshape--><g class="link" data-entity-1="split" data-entity-2="lstm_reshape" data-source-line="71" data-uid="lnk34" id="link_split_lstm_reshape"><path d="M330.22,195.1869 C304.8,216.3169 234.8535,274.4608 192.3035,309.8408" fill="none" id="split-to-lstm_reshape" style="stroke:#00008B;stroke-width:2;"/><polygon fill="#00008B" points="187.69,313.6769,197.1676,310.9984,191.5346,310.4801,192.0529,304.8471,187.69,313.6769" style="stroke:#00008B;stroke-width:2;"/><text fill="#000000" font-family="sans-serif" font-size="13" lengthAdjust="spacing" textLength="70.2939" x="265" y="258.9538">Same data</text></g><!--link cnn_reshape to conv1--><g class="link" data-entity-1="cnn_reshape" data-entity-2="conv1" data-source-line="74" data-uid="lnk35" id="link_cnn_reshape_conv1"><path d="M514.43,366.8769 C516.78,384.4669 519.1238,402.0299 521.6838,421.1499" fill="none" id="cnn_reshape-to-conv1" style="stroke:#00008B;stroke-width:2;"/><polygon fill="#00008B" points="522.48,427.0969,525.2503,417.6456,521.8165,422.1411,517.321,418.7073,522.48,427.0969" style="stroke:#00008B;stroke-width:2;"/></g><!--link conv1 to conv2--><g class="link" data-entity-1="conv1" data-entity-2="conv2" data-source-line="75" data-uid="lnk36" id="link_conv1_conv2"><path d="M527,496.5969 C527,515.8269 527,533.5569 527,551.2169" fill="none" id="conv1-to-conv2" style="stroke:#00008B;stroke-width:2;"/><polygon fill="#00008B" points="527,557.2169,531,548.2169,527,552.2169,523,548.2169,527,557.2169" style="stroke:#00008B;stroke-width:2;"/></g><!--link conv2 to pool--><g class="link" data-entity-1="conv2" data-entity-2="pool" data-source-line="76" data-uid="lnk37" id="link_conv2_pool"><path d="M527,610.2769 C527,628.4169 527,646.6569 527,664.7769" fill="none" id="conv2-to-pool" style="stroke:#00008B;stroke-width:2;"/><polygon fill="#00008B" points="527,670.7769,531,661.7769,527,665.7769,523,661.7769,527,670.7769" style="stroke:#00008B;stroke-width:2;"/></g><!--link pool to cnn_out--><g class="link" data-entity-1="pool" data-entity-2="cnn_out" data-source-line="77" data-uid="lnk38" id="link_pool_cnn_out"><path d="M521.78,724.0369 C518.02,742.6269 514.1507,761.7362 510.3907,780.3062" fill="none" id="pool-to-cnn_out" style="stroke:#00008B;stroke-width:2;"/><polygon fill="#00008B" points="509.2,786.1869,514.9065,778.1597,510.1923,781.2863,507.0656,776.5721,509.2,786.1869" style="stroke:#00008B;stroke-width:2;"/></g><!--link lstm_reshape to bilstm--><g class="link" data-entity-1="lstm_reshape" data-entity-2="bilstm" data-source-line="80" data-uid="lnk39" id="link_lstm_reshape_bilstm"><path d="M150.56,366.8769 C145.5,387.0769 139.9352,409.266 134.8852,429.466" fill="none" id="lstm_reshape-to-bilstm" style="stroke:#00008B;stroke-width:2;"/><polygon fill="#00008B" points="133.43,435.2869,139.4934,427.5257,134.6427,430.4362,131.7323,425.5854,133.43,435.2869" style="stroke:#00008B;stroke-width:2;"/></g><!--link bilstm to concat_hidden--><g class="link" data-entity-1="bilstm" data-entity-2="concat_hidden" data-source-line="81" data-uid="lnk40" id="link_bilstm_concat_hidden"><path d="M125.07,488.6169 C123.55,508.8169 121.9004,530.8538 120.3804,551.0438" fill="none" id="bilstm-to-concat_hidden" style="stroke:#00008B;stroke-width:2;"/><polygon fill="#00008B" points="119.93,557.0269,124.5944,548.3526,120.3054,552.041,116.6169,547.752,119.93,557.0269" style="stroke:#00008B;stroke-width:2;"/></g><!--link concat_hidden to lstm_out--><g class="link" data-entity-1="concat_hidden" data-entity-2="lstm_out" data-source-line="82" data-uid="lnk41" id="link_concat_hidden_lstm_out"><path d="M125.57,610.2769 C130.94,628.4169 136.411,646.9025 141.761,665.0225" fill="none" id="concat_hidden-to-lstm_out" style="stroke:#00008B;stroke-width:2;"/><polygon fill="#00008B" points="143.46,670.7769,144.7478,661.0126,142.0442,665.9815,137.0752,663.2779,143.46,670.7769" style="stroke:#00008B;stroke-width:2;"/></g><!--link cnn_out to fusion--><g class="link" data-entity-1="cnn_out" data-entity-2="fusion" data-source-line="85" data-uid="lnk42" id="link_cnn_out_fusion"><path d="M445.4,838.0769 C410.37,853.8569 365.86,876.2969 330,902.1569 C322.51,907.5569 319.1698,910.5816 314.0298,916.2516" fill="none" id="cnn_out-to-fusion" style="stroke:#00008B;stroke-width:2;"/><polygon fill="#00008B" points="310,920.6969,319.0082,916.7154,313.3582,916.9924,313.0811,911.3424,310,920.6969" style="stroke:#00008B;stroke-width:2;"/></g><!--link lstm_out to fusion--><g class="link" data-entity-1="lstm_out" data-entity-2="fusion" data-source-line="86" data-uid="lnk43" id="link_lstm_out_fusion"><path d="M167.85,723.8269 C201.7,775.1769 273.237,883.7079 294.167,915.4479" fill="none" id="lstm_out-to-fusion" style="stroke:#00008B;stroke-width:2;"/><polygon fill="#00008B" points="297.47,920.4569,295.8548,910.7414,294.7175,916.2827,289.1761,915.1454,297.47,920.4569" style="stroke:#00008B;stroke-width:2;"/></g><!--link fusion to fused_features--><g class="link" data-entity-1="fusion" data-entity-2="fused_features" data-source-line="87" data-uid="lnk44" id="link_fusion_fused_features"><path d="M303,939.3469 C303,955.8769 303,986.9469 303,1012.1869" fill="none" id="fusion-to-fused_features" style="stroke:#00008B;stroke-width:2;"/><polygon fill="#00008B" points="303,1018.1869,307,1009.1869,303,1013.1869,299,1009.1869,303,1018.1869" style="stroke:#00008B;stroke-width:2;"/></g><!--link fused_features to encoder--><g class="link" data-entity-1="fused_features" data-entity-2="encoder" data-source-line="90" data-uid="lnk45" id="link_fused_features_encoder"><path d="M303,1071.4469 C303,1093.8069 303,1120.7069 303,1146.8969" fill="none" id="fused_features-to-encoder" style="stroke:#00008B;stroke-width:2;"/><polygon fill="#00008B" points="303,1152.8969,307,1143.8969,303,1147.8969,299,1143.8969,303,1152.8969" style="stroke:#00008B;stroke-width:2;"/></g><!--link encoder to latent--><g class="link" data-entity-1="encoder" data-entity-2="latent" data-source-line="91" data-uid="lnk46" id="link_encoder_latent"><path d="M325.59,1238.6169 C336.36,1258.5769 346.0518,1276.526 355.3718,1293.806" fill="none" id="encoder-to-latent" style="stroke:#00008B;stroke-width:2;"/><polygon fill="#00008B" points="358.22,1299.0869,357.4682,1289.2668,355.8465,1294.6862,350.4271,1293.0644,358.22,1299.0869" style="stroke:#00008B;stroke-width:2;"/></g><!--link latent to decoder--><g class="link" data-entity-1="latent" data-entity-2="decoder" data-source-line="92" data-uid="lnk47" id="link_latent_decoder"><path d="M360.76,1352.2069 C350.11,1376.4569 336.3234,1407.8237 323.7934,1436.3437" fill="none" id="latent-to-decoder" style="stroke:#00008B;stroke-width:2;"/><polygon fill="#00008B" points="321.38,1441.8369,328.6622,1435.206,323.3912,1437.2592,321.3379,1431.9881,321.38,1441.8369" style="stroke:#00008B;stroke-width:2;"/></g><!--link decoder to reconstructed--><g class="link" data-entity-1="decoder" data-entity-2="reconstructed" data-source-line="93" data-uid="lnk48" id="link_decoder_reconstructed"><path d="M295.6,1527.5969 C291.66,1549.9269 287.9931,1570.7682 284.5931,1590.0282" fill="none" id="decoder-to-reconstructed" style="stroke:#00008B;stroke-width:2;"/><polygon fill="#00008B" points="283.55,1595.9369,289.0537,1587.7693,284.4192,1591.013,281.1755,1586.3785,283.55,1595.9369" style="stroke:#00008B;stroke-width:2;"/></g><!--link latent to attention_score--><g class="link" data-entity-1="latent" data-entity-2="attention_score" data-source-line="96" data-uid="lnk49" id="link_latent_attention_score"><path d="M411.36,1352.3869 C444.87,1374.3169 488.9794,1403.1715 530.2394,1430.1715" fill="none" id="latent-to-attention_score" style="stroke:#00008B;stroke-width:2;"/><polygon fill="#00008B" points="535.26,1433.4569,529.9194,1425.1817,531.0762,1430.719,525.5389,1431.8758,535.26,1433.4569" style="stroke:#00008B;stroke-width:2;"/></g><!--link attention_score to weights--><g class="link" data-entity-1="attention_score" data-entity-2="weights" data-source-line="97" data-uid="lnk50" id="link_attention_score_weights"><path d="M612,1535.5569 C612,1556.1769 612,1573.2069 612,1590.2569" fill="none" id="attention_score-to-weights" style="stroke:#00008B;stroke-width:2;"/><polygon fill="#00008B" points="612,1596.2569,616,1587.2569,612,1591.2569,608,1587.2569,612,1596.2569" style="stroke:#00008B;stroke-width:2;"/></g><!--link latent to att_mult--><g class="link" data-entity-1="latent" data-entity-2="att_mult" data-source-line="98" data-uid="lnk51" id="link_latent_att_mult"><path d="M434.16,1347.4569 C440.15,1349.1069 446.17,1350.6369 452,1351.9269 C517.42,1366.4169 706.79,1340.5769 751,1390.9269 C849.05,1502.5969 708.7602,1700.9921 676.7102,1743.3521" fill="none" id="latent-to-att_mult" style="stroke:#00008B;stroke-width:2;"/><polygon fill="#00008B" points="673.09,1748.1369,681.7102,1743.3732,676.1068,1744.1496,675.3305,1738.5462,673.09,1748.1369" style="stroke:#00008B;stroke-width:2;"/></g><!--link weights to att_mult--><g class="link" data-entity-1="weights" data-entity-2="att_mult" data-source-line="99" data-uid="lnk52" id="link_weights_att_mult"><path d="M622.6,1649.2169 C635.28,1679.7069 653.4668,1723.4465 661.4068,1742.5465" fill="none" id="weights-to-att_mult" style="stroke:#00008B;stroke-width:2;"/><polygon fill="#00008B" points="663.71,1748.0869,663.9488,1738.2409,661.7907,1743.4699,656.5617,1741.3118,663.71,1748.0869" style="stroke:#00008B;stroke-width:2;"/></g><!--link att_mult to attended_latent--><g class="link" data-entity-1="att_mult" data-entity-2="attended_latent" data-source-line="100" data-uid="lnk53" id="link_att_mult_attended_latent"><path d="M667,1765.7669 C667,1784.4469 667,1826.5969 667,1856.6769" fill="none" id="att_mult-to-attended_latent" style="stroke:#00008B;stroke-width:2;"/><polygon fill="#00008B" points="667,1862.6769,671,1853.6769,667,1857.6769,663,1853.6769,667,1862.6769" style="stroke:#00008B;stroke-width:2;"/></g><!--link attended_latent to clf1--><g class="link" data-entity-1="attended_latent" data-entity-2="clf1" data-source-line="103" data-uid="lnk54" id="link_attended_latent_clf1"><path d="M671.76,1915.9369 C676.21,1939.8869 681.7126,1969.5381 686.1626,1993.4581" fill="none" id="attended_latent-to-clf1" style="stroke:#00008B;stroke-width:2;"/><polygon fill="#00008B" points="687.26,1999.3569,689.5464,1989.7771,686.3455,1994.4412,681.6814,1991.2403,687.26,1999.3569" style="stroke:#00008B;stroke-width:2;"/></g><!--link clf1 to clf2--><g class="link" data-entity-1="clf1" data-entity-2="clf2" data-source-line="104" data-uid="lnk55" id="link_clf1_clf2"><path d="M690.85,2052.4969 C690.04,2070.6469 689.2179,2088.8929 688.4079,2107.0129" fill="none" id="clf1-to-clf2" style="stroke:#00008B;stroke-width:2;"/><polygon fill="#00008B" points="688.14,2113.0069,692.5379,2104.1945,688.3633,2108.0119,684.5459,2103.8372,688.14,2113.0069" style="stroke:#00008B;stroke-width:2;"/></g><!--link clf2 to clf_out--><g class="link" data-entity-1="clf2" data-entity-2="clf_out" data-source-line="105" data-uid="lnk56" id="link_clf2_clf_out"><path d="M683.79,2166.0969 C681.51,2184.2369 679.2162,2202.5335 676.9462,2220.6435" fill="none" id="clf2-to-clf_out" style="stroke:#00008B;stroke-width:2;"/><polygon fill="#00008B" points="676.2,2226.5969,681.2883,2218.1642,676.8219,2221.6357,673.3504,2217.1693,676.2,2226.5969" style="stroke:#00008B;stroke-width:2;"/></g><!--link clf_out to outputs--><g class="link" data-entity-1="clf_out" data-entity-2="outputs" data-source-line="108" data-uid="lnk57" id="link_clf_out_outputs"><path d="M651.07,2279.8669 C633.01,2301.1069 610.7378,2327.2969 588.5678,2353.3569" fill="none" id="clf_out-to-outputs" style="stroke:#00008B;stroke-width:2;"/><polygon fill="#00008B" points="584.68,2357.9269,593.5584,2353.6638,587.9199,2354.1185,587.4651,2348.48,584.68,2357.9269" style="stroke:#00008B;stroke-width:2;"/><text fill="#000000" font-family="sans-serif" font-size="13" lengthAdjust="spacing" textLength="38.9302" x="624" y="2324.4438">Logits</text></g><!--link reconstructed to outputs--><g class="link" data-entity-1="reconstructed" data-entity-2="outputs" data-source-line="109" data-uid="lnk58" id="link_reconstructed_outputs"><path d="M271.85,1649.3369 C265.1,1675.8269 256,1718.4769 256,1756.0069 C256,1756.0069 256,1756.0069 256,2254.0869 C256,2329.3769 327.9809,2366.4873 402.4109,2386.2473" fill="none" id="reconstructed-to-outputs" style="stroke:#00008B;stroke-width:2;"/><polygon fill="#00008B" points="408.21,2387.7869,400.5377,2381.6114,403.3774,2386.5039,398.4849,2389.3436,408.21,2387.7869" style="stroke:#00008B;stroke-width:2;"/><text fill="#000000" font-family="sans-serif" font-size="13" lengthAdjust="spacing" textLength="97.8745" x="257" y="2030.4638">Reconstruction</text></g><!--link latent to outputs--><g class="link" data-entity-1="latent" data-entity-2="outputs" data-source-line="110" data-uid="lnk59" id="link_latent_outputs"><path d="M434.12,1347.6669 C440.12,1349.2769 446.15,1350.7369 452,1351.9269 C526.74,1367.1269 732.11,1344.9869 793,1390.9269 C833.18,1421.2469 858,1433.3369 858,1483.6669 C858,1483.6669 858,1483.6669 858,2254.0869 C858,2340.1369 768.0294,2376.9802 681.8994,2393.7502" fill="none" id="latent-to-outputs" style="stroke:#00008B;stroke-width:2;"/><polygon fill="#00008B" points="676.01,2394.8969,685.6086,2397.1031,680.9178,2393.9413,684.0796,2389.2506,676.01,2394.8969" style="stroke:#00008B;stroke-width:2;"/><text fill="#000000" font-family="sans-serif" font-size="13" lengthAdjust="spacing" textLength="102.667" x="859" y="1893.8738">Latent Features</text></g><!--link weights to outputs--><g class="link" data-entity-1="weights" data-entity-2="outputs" data-source-line="111" data-uid="lnk60" id="link_weights_outputs"><path d="M538.63,1643.6369 C486.24,1662.8369 425,1697.7469 425,1756.0069 C425,1756.0069 425,1756.0069 425,2254.0869 C425,2294.3869 446.4643,2326.5073 473.7743,2353.7773" fill="none" id="weights-to-outputs" style="stroke:#00008B;stroke-width:2;"/><polygon fill="#00008B" points="478.02,2358.0169,474.4777,2348.8271,474.4819,2354.4839,468.825,2354.4881,478.02,2358.0169" style="stroke:#00008B;stroke-width:2;"/><text fill="#000000" font-family="sans-serif" font-size="13" lengthAdjust="spacing" textLength="117.1841" x="426" y="2030.4638">Attention Weights</text></g><!--SRC=[ZLTDRkCs5Dxh56-yw2IT6AWLe2W4f41i9vEWJbh4Bhge0eEHQ9kmJ1eaDPwWAD1L3z0Zz6XpaZx-I28LkwqNilZuVZw-N-fTILUCKtYwcIn0qa8JlgveyiwJ9_TFazaD54mMI4tKbl4zaMG7loM0lwT6O4oAxLgAcfSJKGa9CxRUw75LqnwRa2MLZcLAvBRbc5W3HxLyb9JoaAcdezk_bb8SZYYtzCM65LjEbO8q-Jr9DDCLXMbDgk5O4bviu7uwXmTHqWhvYmtJYBcMUERtSC_tjOOPUQKoiNuQECej9OP5vVpNCT75vgAbF0-0A626ooYO4ar0xIkcDUDhM2704Yt3YxLCLUBTFB2CSyDe5LWHes3o-0WEPh977v4rXK576pJHiDYUgDgGFGKj3AuB624iXwVWV2dTRi0_4VpJQ0fdeoz__ZKvp_aFL79QNLrUODXcF-VS7krHoDq5JANOYzfXAupO4JMJesfQaJGGkIx9NhDFz85y_ac8QZJD-STAlA1Za0A6XDwoadjy3mHlAw8rvJd_iTReuWpCEIVT8H6ZYV5x6BFPVF7WtGJGEI_Q-7V_BQuw3rPAxuwuSCnAPcg72OxWZUQStx6ofFpgxi8bZheQMGqlpEY8_LOGp2KX3qIMy9LnUB6rxqu5p3NHL3KUHERbncu4IdnWOeUaTm7erYK-HU6sLWYtpRoOd7C7Yt9Y3cNLh9o0Zq2jQ1aL00O0FhGsLsP_kVBxnkvrhGNb1HQOxC8G4ECWt3XYpcVOXOWySyQN9Ti1vXTK1fesowzJp3MJOMrsjZ8XKq_gt89iu7HcPvO3Av0Kr1sga_7EjElGzJH6sWcSGdeQO7TA1x2aVO3OIGLNMjQ5fkLRjyjmsyLxJglLyDgKYubav_gO7dj_NWXCXKUg3q9k__jaUAu5uPl_nJXdwvrWfKLB6kjBPGo6dQ7PWL-ecG7gU30ERjCD1v_8DnNT8TFmm1I6yA6kDCCkMdHvZ5QNEoJtpPMOq2x-nuqHpxJqAU2gYPcAdrH4ARPYOMftjDYtnttaAdhKpsLNzDLgz5Q1bmYaqrFIwIbfbtN6gkiRC1DhfbKZrpKDjztKlZsp8waivr_- -BlrWFEprsExqEZPSGIPQpXivdx0l7Mxll2QXWAz03YcDra1n-8a730xDWNdhYqh6FenJdZf9cnYnpCCXz_xEMkVTXqCIiYm7CYEGecZUH3mXAEWnnGDRBYjn249DLeBTdhQPxjExJgrQplmpAF58znL8fveLdU4nB3x6UF-6lN1t8XMtM6yXTw0yBOjcny13NT8StyDvNJlTv1Z5YlLDEE6py9obUR-BANfYFxVqkAcPyorUUByqudtEqvlRNcQfXABkPRXzs9Yyz9P2Bg4oOMs4pWyFHON85FZvj6iKhDAcrKRcx3q4hzXcNpMcqpqHPn4VkapnUKu24yRgehBSX0v8E1xKvcs2Auv5zes19NW6mLfza2iVD8OoUYUaVc9zemZpTzWR8SAciNYTOzDfihWCaMcKVeTNC7essy0ozyOZSqqkOHsnaBZXH-xmJQwtcVcfhFRuzaKzRSMMBMt6Yq00uOAK3lbobxlSkvTfSmb0SuGXx5z_iPuFxUozf9bPrENfOXXXZqPUnJRxON4BoNKQz2JOjDQQn6OhuUShsmY557NRH2yu575pcW88cG7uL0JjGLh36_MldK_4CQpNWFt_RR-p2f6v6lMwzvk-vvhAj5rcc2dOHgvkkk4_Uff8PD-8cYnD_YQtfAvhncNrpbl1PMxo5wcpuD8hcr0MNkJFoMB6T88jv7nBitwzxrZTly1]--></g></svg>